<?xml version="1.0" encoding="UTF-8"?>
<svg version="1.1" xmlns="http://www.w3.org/2000/svg" width="1024" height="1024">
<path d="M0 0 C337.92 0 675.84 0 1024 0 C1024 337.92 1024 675.84 1024 1024 C686.08 1024 348.16 1024 0 1024 C0 686.08 0 348.16 0 0 Z " fill="#FCFBFC" transform="translate(0,0)"/>
<path d="M0 0 C36.59557958 -0.11312683 73.19110816 -0.20259925 109.78682683 -0.25532665 C114.11122144 -0.26157988 118.43561569 -0.26805152 122.76000977 -0.2746582 C123.6208874 -0.27596976 124.48176503 -0.27728131 125.36872987 -0.2786326 C139.29213378 -0.30036535 153.21543405 -0.33977508 167.13877656 -0.38576398 C181.43461975 -0.43258803 195.7304088 -0.46030795 210.02632552 -0.47044247 C218.84156754 -0.47728933 227.65651655 -0.49888275 236.47166834 -0.53958233 C242.52366174 -0.56609423 248.57550456 -0.57398197 254.62755176 -0.56750689 C258.11484685 -0.56431703 261.6016314 -0.56906676 265.08883476 -0.59602737 C268.88133621 -0.62103976 272.6726014 -0.61487352 276.46513367 -0.60127258 C277.55175079 -0.61583679 278.6383679 -0.630401 279.75791281 -0.64540654 C291.94091853 -0.52794912 302.02485543 3.8905682 311 12 C311.61359375 12.49886719 312.2271875 12.99773437 312.859375 13.51171875 C319.3525899 19.21483007 323.29548778 27.88646335 326 36 C326.09733425 38.15752001 326.13277409 40.31798421 326.13701439 42.47769451 C326.13966622 43.14158173 326.14231804 43.80546895 326.14505023 44.48947397 C326.15275311 46.7299505 326.15330278 48.97037231 326.15390015 51.21086121 C326.15791417 52.82721971 326.16235229 54.44357721 326.1671797 56.05993348 C326.17915867 60.51448497 326.18479677 64.96902562 326.18936086 69.42359006 C326.19531228 74.22348644 326.20692362 79.02336982 326.21765137 83.82325745 C326.24219116 95.42470514 326.25680754 107.02615714 326.26971143 118.62762281 C326.27342308 121.9052377 326.27739636 125.18285216 326.2814641 128.46046662 C326.30670711 148.8173275 326.32875874 169.17418905 326.34119225 189.53106213 C326.34412193 194.24816579 326.34708359 198.96526943 326.35009766 203.68237305 C326.35084371 204.8547818 326.35158976 206.02719054 326.35235842 207.23512683 C326.36500074 226.20989468 326.39820711 245.18456857 326.43989949 264.15929254 C326.48236384 283.64539924 326.50589274 303.13145792 326.51111281 322.61761075 C326.51452249 333.55607834 326.52622489 344.49439929 326.55921555 355.43282127 C326.58727947 364.75306518 326.59818774 374.07313242 326.58702008 383.39341529 C326.58184907 388.14480974 326.58461828 392.89583458 326.60948563 397.64717484 C326.6321125 402.0070787 326.63113508 406.36635036 326.61228175 410.7262663 C326.60950038 412.29375445 326.61497522 413.86128671 326.63009469 415.4287044 C326.80361806 434.60870417 321.14202177 449.52697225 307.875 463.75 C297.10096962 474.14784217 284.31319713 480.18289412 269.29312134 480.12025452 C268.53662115 480.12110894 267.78012097 480.12196337 267.00069654 480.12284368 C264.47651416 480.12448526 261.95239887 480.11899884 259.42822266 480.11352539 C257.61455283 480.11324321 255.80088289 480.11340186 253.98721313 480.1139679 C249.07035985 480.11425465 244.15353098 480.1083775 239.23668337 480.10139394 C234.09572759 480.09514023 228.95477125 480.094555 223.81381226 480.09336853 C214.08169886 480.09026117 204.34959671 480.08205579 194.61748827 480.07201904 C183.53654576 480.06083944 172.45560271 480.05534279 161.37465596 480.05032361 C138.58309774 480.0398727 115.7915495 480.02228476 93 480 C94.17777402 484.16423097 95.36382029 488.3259992 96.55682373 492.48588562 C96.95961081 493.89443127 97.36032542 495.30357159 97.75872803 496.71336365 C102.59851838 513.82700581 108.97113589 530.1200742 117 546 C117.91962021 546.00546844 117.91962021 546.00546844 118.8578186 546.01104736 C125.24983366 546.05291953 131.64113384 546.12229845 138.03271484 546.20751953 C140.41675663 546.23571195 142.80089158 546.25693503 145.18505859 546.27099609 C148.61604452 546.29244869 152.04591224 546.33911364 155.4765625 546.390625 C156.53928375 546.39185364 157.602005 546.39308228 158.69692993 546.39434814 C165.80017759 546.53433263 169.72633656 547.68390018 174.84570312 552.86962891 C177.35322923 557.49752078 176.51078493 563.24137179 176.5 568.375 C176.52835938 569.59445312 176.55671875 570.81390625 176.5859375 572.0703125 C176.60778748 582.07760182 176.60778748 582.07760182 173.71875 585.7265625 C169.71038805 589.0783824 167.10512457 590.24907921 161.87059212 590.25726891 C160.82827623 590.2637178 159.78596035 590.27016669 158.71205914 590.276811 C157.56830063 590.2737138 156.42454212 590.2706166 155.24612427 590.26742554 C154.03004136 590.27195665 152.81395845 590.27648776 151.56102455 590.28115618 C148.18390617 590.2916398 144.80700046 590.29312376 141.42988086 590.29076743 C137.78834168 590.29035969 134.14683441 590.30139428 130.50531006 590.31088257 C123.37035842 590.32750264 116.23543982 590.33299256 109.10047044 590.33410732 C103.30160355 590.33505729 97.50274757 590.339165 91.70388412 590.34550858 C75.26732169 590.36312347 58.83078539 590.37234702 42.39421345 590.37084763 C41.50792672 590.37076772 40.62164 590.3706878 39.70849609 590.37060547 C38.37744509 590.37048283 38.37744509 590.37048283 37.01950417 590.37035771 C22.63574551 590.36954466 8.25209153 590.38868636 -6.13163684 590.4168822 C-20.89654195 590.44559716 -35.66139598 590.45942327 -50.42632973 590.45769465 C-58.71743001 590.45703028 -67.00842054 590.46254298 -75.2994957 590.48405075 C-82.35825998 590.50224429 -89.41686476 590.50662498 -96.47564231 590.4930319 C-100.07744904 590.48649301 -103.67894961 590.48641781 -107.28072739 590.5037384 C-111.18467976 590.52231914 -115.08818296 590.50993858 -118.99215698 590.49447632 C-120.13145405 590.50476344 -121.27075111 590.51505057 -122.44457233 590.52564943 C-128.59283224 590.47166614 -132.37039856 590.20473157 -137 586 C-140.29223949 581.06164077 -139.41025207 575.49130855 -139.4375 569.6875 C-139.47037109 568.46353516 -139.50324219 567.23957031 -139.53710938 565.97851562 C-139.5974139 555.89669506 -139.5974139 555.89669506 -136.84765625 552.33203125 C-130.47072476 547.10977049 -125.32071998 546.54049714 -117.3515625 546.48828125 C-116.33903412 546.47033005 -115.32650574 546.45237885 -114.28329468 546.43388367 C-111.06390489 546.37990042 -107.84466237 546.34592293 -104.625 546.3125 C-102.43617748 546.2793164 -100.24737436 546.24482578 -98.05859375 546.20898438 C-92.70586125 546.12418098 -87.3531094 546.05578051 -82 546 C-73.57735304 527.9142488 -66.28301596 509.69034785 -59.7578125 490.83984375 C-59.21169312 489.26583801 -59.21169312 489.26583801 -58.65454102 487.66003418 C-57.7688607 485.10697703 -56.88402675 482.55363008 -56 480 C-57.22168617 480.00276538 -57.22168617 480.00276538 -58.46805286 480.00558662 C-78.31678997 480.04982089 -98.16551854 480.08288341 -118.01429462 480.10362434 C-127.6131448 480.11392197 -137.21196201 480.12795329 -146.81079102 480.15087891 C-155.18044549 480.1708592 -163.55007607 480.18372743 -171.91975373 480.18817699 C-176.34840649 480.19077652 -180.77699093 480.19685485 -185.20562172 480.21146011 C-189.38096791 480.22511744 -193.55621815 480.22920629 -197.73158455 480.22621536 C-199.2572863 480.2267619 -200.78299154 480.23069052 -202.30867386 480.23841095 C-221.61109001 480.33122882 -236.20830099 476.4772537 -250.34375 462.71875 C-261.27906036 451.20022309 -268.1423475 436.86051439 -268.11352539 420.89306641 C-268.11367142 420.20944031 -268.11381744 419.52581421 -268.1139679 418.82147217 C-268.11327608 416.58146901 -268.10551822 414.34155097 -268.09765625 412.1015625 C-268.09578947 410.54072108 -268.09436679 408.97987908 -268.09336853 407.41903687 C-268.08956383 403.3255652 -268.07975116 399.23212943 -268.06866455 395.13867188 C-268.05840628 390.9557341 -268.05386147 386.77279049 -268.04882812 382.58984375 C-268.03812694 374.39321276 -268.02107528 366.19661085 -268 358 C-264.3858064 359.36563359 -261.44928217 360.97619535 -258.29516602 363.22387695 C-244.016425 373.37415293 -227.93234168 380.60479641 -211 385 C-209.89140625 385.29390625 -208.7828125 385.5878125 -207.640625 385.890625 C-167.23194235 395.56594338 -125.64687048 388.98821869 -89.0625 370 C-87.89098389 369.3953894 -87.89098389 369.3953894 -86.69580078 368.77856445 C-85.94153809 368.37726318 -85.18727539 367.97596191 -84.41015625 367.5625 C-83.75152588 367.21316406 -83.09289551 366.86382813 -82.41430664 366.50390625 C-80.04886344 365.14956951 -80.04886344 365.14956951 -78.52719498 363.56600034 C-72.17108369 357.75421092 -65.62946031 358.17079506 -57.40893555 358.2784729 C-55.92122107 358.27585419 -54.4335093 358.27059655 -52.94581223 358.2629379 C-48.87036494 358.24955398 -44.79586797 358.27347507 -40.72054172 358.30360627 C-36.32118754 358.32955706 -31.9218854 358.32074599 -27.5224762 358.31619263 C-19.90446309 358.31304902 -12.2867587 358.33184746 -4.66882324 358.36561966 C6.34532959 358.4144163 17.35933339 358.43001185 28.3735826 358.43754761 C46.24409408 358.45067401 64.11444109 358.49058908 81.98486328 358.54736328 C99.34260231 358.6024513 116.70029665 358.64491507 134.05810547 358.67041016 C135.12833509 358.6719865 136.19856472 358.67356284 137.30122554 358.67518695 C142.67034177 358.68301727 148.03945831 358.69059949 153.40857506 358.69805837 C197.93916396 358.76024198 242.46957348 358.86590633 287 359 C286.96402525 319.21070744 286.90712566 279.42149533 286.82207905 239.63227605 C286.81206134 234.9370613 286.80221725 230.2418462 286.79248047 225.54663086 C286.7905391 224.61187999 286.78859772 223.67712912 286.78659752 222.71405246 C286.75555844 207.56959562 286.73859155 192.42515394 286.72680578 177.28067128 C286.7144041 161.74632333 286.68692496 146.21205508 286.64538693 130.67775744 C286.62022333 121.08870853 286.6068848 111.49979175 286.60857043 101.91070934 C286.60860013 95.33919786 286.59401271 88.7678212 286.56783572 82.19636223 C286.55315708 78.40233432 286.54501456 74.60858289 286.55419731 70.81453133 C286.56397775 66.70407732 286.54302477 62.59435804 286.51898193 58.48396301 C286.52674235 57.2806604 286.53450277 56.07735779 286.54249835 54.83759147 C286.51770752 48.52083918 286.51770752 48.52083918 284.15506363 42.78225231 C280.92676631 40.11242842 278.31729736 39.87403368 274.27361012 39.8613348 C273.2957696 39.85586036 272.31792909 39.85038591 271.31045705 39.84474558 C270.233621 39.84376747 269.15678495 39.84278936 268.0473175 39.84178162 C266.90544312 39.83684364 265.76356874 39.83190566 264.5870921 39.82681805 C261.41282912 39.81409044 258.23858988 39.805815 255.064309 39.79939139 C251.64304907 39.79139291 248.22181149 39.77769323 244.80056763 39.76467896 C238.87143465 39.74290837 232.94229942 39.72476601 227.01314735 39.70907402 C218.44054403 39.6863807 209.86796546 39.65823712 201.29538312 39.62875474 C187.38760683 39.58107224 173.47982042 39.53780984 159.57202148 39.49731445 C146.06029473 39.45796288 132.54857696 39.41653746 119.03686523 39.37231445 C118.20428164 39.36959018 117.37169804 39.36686591 116.51388464 39.36405908 C112.33714055 39.35037966 108.1603966 39.33665938 103.98365271 39.32291877 C69.32245359 39.20894365 34.6612351 39.10240846 0 39 C0 26.13 0 13.26 0 0 Z " fill="#0F0F0F" transform="translate(505,250)"/>
<path d="M0 0 C48.51 0 97.02 0 147 0 C147.12099405 74.55922064 147.12099405 74.55922064 147.14648438 105.76171875 C147.15235735 112.90283224 147.15841861 120.04394553 147.16479492 127.18505859 C147.16598179 128.52745812 147.16598179 128.52745812 147.16719264 129.89697683 C147.18021488 144.31562776 147.20385208 158.73424253 147.23145839 173.15287207 C147.25958464 187.96741931 147.27619147 202.78194771 147.28226548 217.59652054 C147.286367 226.72643687 147.2992871 235.85625101 147.3237494 244.98613586 C147.33969588 251.2600726 147.34438036 257.53395707 147.34050413 263.80791257 C147.33859633 267.41923761 147.34136965 271.030385 147.35761642 274.64167786 C147.43996385 293.91321591 146.72740053 311.78311276 140.3125 330.125 C139.96292236 331.14142578 139.61334473 332.15785156 139.25317383 333.20507812 C132.08259237 353.50967015 121.03283348 370.62404907 106 386 C105.12730469 386.93457031 104.25460937 387.86914062 103.35546875 388.83203125 C84.89499933 408.15741286 60.06635354 420.75022423 34 426 C33.11207764 426.17950195 32.22415527 426.35900391 31.30932617 426.54394531 C23.72627047 427.94981025 16.38960615 428.31487142 8.6875 428.25 C7.49688965 428.24178223 6.3062793 428.23356445 5.07958984 428.22509766 C-33.69186102 427.73271135 -67.01818005 411.17587644 -94.6875 384.625 C-129.97921872 348.2364637 -132.57682364 305.30897985 -132 257 C-112.53 257 -93.06 257 -73 257 C-72.625 276.1875 -72.625 276.1875 -72.52197266 282.15698242 C-72.27231957 294.42196127 -71.89497779 306.57977365 -67.3125 318.125 C-66.92058472 319.13264404 -66.92058472 319.13264404 -66.52075195 320.16064453 C-58.44470543 340.14414209 -41.89783 355.55175592 -22.375 364.1875 C0.25592266 372.56529349 21.84141281 371.60396898 43.75 361.6953125 C48.94343775 358.9862356 53.46642151 355.69012202 58 352 C58.77988281 351.39542969 59.55976563 350.79085938 60.36328125 350.16796875 C76.60266899 336.8455004 84.34106036 315.87261699 86.52330685 295.4555912 C87.02866098 290.26219516 87.13748876 285.12856549 87.12025452 279.91390991 C87.12110894 278.94981441 87.12196337 277.98571891 87.12284368 276.99240839 C87.1244795 273.78967862 87.11900843 270.58700223 87.11352539 267.38427734 C87.11324308 265.07741294 87.11340211 262.77054844 87.1139679 260.46368408 C87.11425417 254.22066579 87.10838491 247.97766681 87.10139394 241.734653 C87.0951321 235.20303668 87.09455436 228.67141989 87.09336853 222.13980103 C87.09078261 211.1832038 87.08437479 200.22661332 87.07543945 189.27001953 C87.06624897 177.98876989 87.05917615 166.70752217 87.05493164 155.42626953 C87.05466892 154.7299398 87.05440619 154.03361007 87.05413551 153.31617944 C87.05283039 149.82261312 87.0515667 146.32904679 87.05032361 142.83548045 C87.03997067 113.89031478 87.02154299 84.94515971 87 56 C57.96 55.67 28.92 55.34 -1 55 C-1 36.66363661 -0.63191281 18.32547157 0 0 Z " fill="#0D0D0D" transform="translate(332,186)"/>
<path d="M0 0 C0.82653373 0.00234117 1.65306746 0.00468233 2.50464767 0.00709444 C3.37839112 0.005641 4.25213456 0.00418756 5.15235507 0.00269008 C8.11860607 -0.00099737 11.08480655 0.00252911 14.05105728 0.00595194 C16.1837297 0.0048012 18.31640193 0.003214 20.44907373 0.0012247 C26.33950275 -0.00297515 32.22991571 -0.000875 38.12034482 0.00221092 C44.46123836 0.00446215 50.80212902 0.00098679 57.143022 -0.00176901 C68.85694514 -0.00597053 80.57086171 -0.00558972 92.28478502 -0.00285754 C103.10460683 -0.00034616 113.92442676 0.00031668 124.74424881 -0.00088018 C125.46077623 -0.00095657 126.17730365 -0.00103295 126.91554402 -0.00111165 C129.82385323 -0.00142297 132.73216243 -0.00174137 135.64047163 -0.00207142 C162.94618821 -0.00513332 190.25190151 -0.00235235 217.55761758 0.00302548 C241.83957158 0.00777141 266.12152032 0.00734679 290.40347427 0.00256449 C317.65790252 -0.00278524 344.91232787 -0.00491621 372.16675657 -0.00182325 C375.06989648 -0.00150251 377.97303639 -0.00118967 380.8761763 -0.00088018 C381.59105117 -0.0008011 382.30592605 -0.00072203 383.0424638 -0.00064055 C393.85789521 0.00049895 404.67332452 -0.00083712 415.48875564 -0.00335974 C427.7811753 -0.00621247 440.07358719 -0.00542137 452.36600643 -0.00007899 C458.64446698 0.00255923 464.92291685 0.00356106 471.20137733 0.00027186 C476.93894185 -0.00268864 482.6764857 -0.00110246 488.41404831 0.00424941 C490.49948655 0.00537466 492.58492651 0.00478006 494.67036366 0.00237362 C497.48552709 -0.00062788 500.30061793 0.00241153 503.11577743 0.00709444 C503.94231116 0.00475328 504.7688449 0.00241211 505.62042511 0 C511.19606221 0.01878525 511.19606221 0.01878525 512.31021255 1.13293558 C512.62262105 5.10375533 512.58891314 9.08886522 512.62271255 13.07043558 C512.65171646 14.17451761 512.68072037 15.27859965 512.71060318 16.41613871 C512.7710023 24.28196289 512.0385216 31.92050041 506.61807388 38.04480082 C500.5594666 43.74922102 494.12292424 45.58678865 485.94365162 45.51045901 C484.71443724 45.51699949 484.71443724 45.51699949 483.46039024 45.5236721 C480.71465124 45.53461972 477.96941529 45.52420862 475.22367996 45.51388651 C473.23518372 45.51734327 471.2466894 45.52210795 469.2581991 45.52806824 C463.79384879 45.54060547 458.32965544 45.5343954 452.86530453 45.52510959 C446.97222974 45.51833057 441.07918222 45.52879467 435.18611282 45.53704935 C423.64125713 45.55040137 412.09645989 45.54750232 400.55160189 45.53881143 C391.16968092 45.53193437 381.78777549 45.53103615 372.40585274 45.53438288 C371.40598728 45.53472661 371.40598728 45.53472661 370.38592252 45.53507729 C367.68006303 45.53601131 364.97420355 45.53696651 362.26834408 45.53795658 C336.88380597 45.54713411 311.49929975 45.53881256 286.11476656 45.52266589 C263.56376857 45.50843066 241.01282142 45.50970152 218.46182388 45.52404886 C193.12524551 45.54011456 167.78869532 45.5464816 142.45211256 45.53721207 C139.75087109 45.53624993 137.04962961 45.5353114 134.34838814 45.53438288 C133.68327449 45.53414565 133.01816085 45.53390842 132.33289224 45.53366399 C122.29076384 45.53025216 112.24865666 45.53426 102.20653099 45.54182154 C90.78692828 45.55023114 79.36738744 45.54796778 67.94779182 45.53197931 C62.12002562 45.52408914 56.29236263 45.52101777 50.46459717 45.53092676 C45.13084988 45.53985867 39.79730158 45.53496545 34.46357238 45.51899411 C32.53296764 45.51563993 30.60234613 45.51735463 28.67175216 45.52462147 C26.04846704 45.533739 23.42586416 45.52439225 20.80261463 45.51045901 C19.67719844 45.52099425 19.67719844 45.52099425 18.52904657 45.53174233 C11.07355683 45.45255196 4.42021936 43.22722226 -1.02694565 37.97863871 C-7.36364173 30.94510144 -7.22723387 22.63079254 -7.00228745 13.63293558 C-6.99261948 12.44184183 -6.98295151 11.25074808 -6.97299057 10.02356058 C-6.84170534 0.02305084 -6.84170534 0.02305084 0 0 Z " fill="#FAFAFA" transform="translate(280.68978744745255,647.8670644164085)"/>
<path d="M0 0 C25.41 0 50.82 0 77 0 C81.50156796 11.2539199 81.50156796 11.2539199 83.10644531 16.13647461 C83.46651672 17.22717758 83.82658813 18.31788055 84.1975708 19.44163513 C84.57065369 20.58366898 84.94373657 21.72570282 85.328125 22.90234375 C85.72199402 24.10186172 86.11586304 25.3013797 86.52166748 26.5372467 C87.34683023 29.05368557 88.17062163 31.57052432 88.9921875 34.08813477 C90.04496329 37.31332457 91.1048001 40.53614521 92.16652298 43.75839901 C93.18285592 46.84669515 94.19265074 49.93712666 95.203125 53.02734375 C95.58430481 54.18354721 95.96548462 55.33975067 96.35821533 56.5309906 C96.7056781 57.59962845 97.05314087 58.6682663 97.41113281 59.76928711 C97.71883606 60.70953232 98.02653931 61.64977753 98.34356689 62.61851501 C99 65 99 65 99 68 C59.4 68 19.8 68 -21 68 C-22.24674002 64.25977995 -21.57624926 63.02733435 -20.30932617 59.33862305 C-19.91529099 58.17699142 -19.5212558 57.0153598 -19.11528015 55.81852722 C-18.67469104 54.54952808 -18.23391593 53.28059351 -17.79296875 52.01171875 C-17.3471313 50.70785706 -16.90209977 49.40371954 -16.45783997 48.09931946 C-15.28451392 44.66130471 -14.10041053 41.22709738 -12.91400146 37.7935791 C-11.71430341 34.31573477 -10.52447695 30.83451946 -9.33398438 27.35351562 C-7.23291069 21.21327868 -5.12299377 15.07615491 -3.0065155 8.94120789 C-1.98843403 5.96620228 -0.9943414 2.9830242 0 0 Z " fill="#FAFAFB" transform="translate(484,730)"/>
<path d="M0 0 C0.9583374 0.00523682 1.9166748 0.01047363 2.90405273 0.01586914 C4.45576172 0.02070313 4.45576172 0.02070313 6.03881836 0.02563477 C7.12743164 0.03401367 8.21604492 0.04239258 9.33764648 0.05102539 C10.97636719 0.05779297 10.97636719 0.05779297 12.64819336 0.06469727 C15.35723144 0.07652713 18.06616248 0.09300996 20.77514648 0.11352539 C19.21630431 8.82118132 16.94088702 17.3270477 14.65014648 25.86352539 C14.24766015 27.37337241 13.84548432 28.88330224 13.44360352 30.39331055 C11.52203155 37.60730635 9.58646558 44.81753935 7.65014648 52.02758789 C6.98314835 54.51447818 6.31647547 57.00145573 5.65014648 59.48852539 C5.32336914 60.70757568 4.9965918 61.92662598 4.65991211 63.18261719 C2.39942234 71.65888983 0.2519167 80.15915057 -1.84985352 88.67602539 C-4.04426682 97.56493597 -6.38776162 106.38375485 -8.95361328 115.17211914 C-13.57649722 131.09385274 -17.52278981 147.21229341 -21.51757812 163.30102539 C-24.25099356 174.28477888 -27.24666425 185.1934981 -30.22485352 196.11352539 C-37.81485352 196.11352539 -45.40485352 196.11352539 -53.22485352 196.11352539 C-52.05865256 190.2825206 -50.91349083 184.62272795 -49.43969727 178.89086914 C-49.26700317 178.21691605 -49.09430908 177.54296295 -48.91638184 176.84858704 C-48.33453712 174.58199437 -47.74854377 172.31649781 -47.16235352 170.05102539 C-46.73461207 168.38991535 -46.30696265 166.72878161 -45.87939453 165.06762695 C-40.96554483 146.0092165 -35.96546053 126.97302451 -30.97820091 107.93372059 C-25.96592436 88.79836055 -20.99933401 69.65206168 -16.09204102 50.48950195 C-14.29577422 43.49660296 -12.46952812 36.51156041 -10.63891602 29.52758789 C-9.60142824 25.56693795 -8.57835851 21.60277671 -7.56079102 17.63696289 C-7.28517334 16.56736328 -7.00955566 15.49776367 -6.72558594 14.39575195 C-6.19434582 12.3333091 -5.66574608 10.27018385 -5.14013672 8.20629883 C-4.90383545 7.29138672 -4.66753418 6.37647461 -4.42407227 5.43383789 C-4.21613037 4.62188965 -4.00818848 3.80994141 -3.79394531 2.97338867 C-2.98368517 0.32535703 -2.81981951 0.14388413 0 0 Z " fill="#0D0D0D" transform="translate(635.224853515625,345.886474609375)"/>
<path d="M0 0 C3.77720846 1.59600357 6.38077338 3.97726412 9.375 6.75 C9.89030273 7.22663086 10.40560547 7.70326172 10.93652344 8.19433594 C15.72292772 12.66031148 20.34891024 17.28556767 24.92724609 21.96386719 C27.82666321 24.90873509 30.78182751 27.72001484 33.91015625 30.421875 C38.17867118 34.11106951 42.19728725 38.01360563 46.1875 42 C46.87263672 42.67289062 47.55777344 43.34578125 48.26367188 44.0390625 C58.97597135 54.72043137 58.97597135 54.72043137 59.75 60.9375 C59.30086742 66.4315404 55.77420261 69.30759126 52 73 C50.82373102 74.19615924 49.64942259 75.39424808 48.4765625 76.59375 C38.33996758 86.89336593 38.33996758 86.89336593 33.33984375 91.15625 C27.24735818 96.41912051 21.66775092 102.22699491 16 107.9375 C14.83226626 109.11026009 13.66429926 110.28278798 12.49609375 111.45507812 C9.66136766 114.30071689 6.82981176 117.14947453 4 120 C-3.46075735 116.48514563 -8.93426522 109.37302118 -14 103 C-12.68516427 100.08165783 -11.28366724 98.05079071 -8.98828125 95.828125 C-8.39869629 95.2501416 -7.80911133 94.6721582 -7.20166016 94.07666016 C-6.26652588 93.17246338 -6.26652588 93.17246338 -5.3125 92.25 C-0.8833069 87.90156201 3.40502035 83.53782954 7.421875 78.80078125 C10.43616188 75.36121132 13.74042823 72.2045579 17 69 C17.9075 68.071875 18.815 67.14375 19.75 66.1875 C21.73921971 64.25353639 23.73442509 62.59429345 26 61 C25.53007995 56.7381818 22.85532801 54.45428381 19.93359375 51.60546875 C19.42127701 51.09502518 18.90896027 50.5845816 18.38111877 50.05867004 C17.2942728 48.97854159 16.20383738 47.90201465 15.11010742 46.82885742 C13.46093428 45.21049645 11.82234467 43.58203835 10.18554688 41.95117188 C5.1480937 36.95164223 0.07176064 32.03041952 -5.34545898 27.43847656 C-8.03915475 25.09654718 -10.50829317 22.5539995 -13 20 C-11.5273511 15.66208857 -9.28996816 12.48927693 -6.5 8.875 C-4.25337435 5.95001012 -2.04601541 3.06902312 0 0 Z " fill="#121212" transform="translate(683,385)"/>
<path d="M0 0 C3 0 3 0 4.61328125 1.43359375 C8.81393007 6.38746235 12.53003822 11.50907147 16 17 C14.33265125 21.15321415 11.33706269 24.1117044 8.3125 27.3125 C7.77012695 27.89209473 7.22775391 28.47168945 6.66894531 29.06884766 C1.67042627 34.39153844 -3.34251797 39.60187825 -8.875 44.375 C-11.99316519 47.08884514 -15.06122921 49.84443573 -18.0625 52.6875 C-18.83722656 53.41324219 -19.61195313 54.13898438 -20.41015625 54.88671875 C-22.23067881 56.81385723 -22.23067881 56.81385723 -21.82546997 58.88964844 C-20.7887553 61.5400567 -19.42675392 62.90024704 -17.38232422 64.87890625 C-16.23641312 66.00026978 -16.23641312 66.00026978 -15.06735229 67.14428711 C-14.23817291 67.94229736 -13.40899353 68.74030762 -12.5546875 69.5625 C-10.82136541 71.26276686 -9.08830023 72.96329564 -7.35546875 74.6640625 C-4.60962633 77.34141899 -1.8599113 80.0146126 0.89501953 82.68261719 C3.54746717 85.2568984 6.18456179 87.84614214 8.8203125 90.4375 C9.65354034 91.23551025 10.48676819 92.03352051 11.34524536 92.85571289 C12.48169998 93.97707642 12.48169998 93.97707642 13.64111328 95.12109375 C14.31538361 95.7752124 14.98965393 96.42933105 15.68435669 97.10327148 C17 99 17 99 16.8576355 101.04467773 C15.41046878 104.3440716 13.01912067 106.92237113 10.6875 109.625 C9.95756836 110.50285156 9.95756836 110.50285156 9.21289062 111.3984375 C6.64443398 114.41283076 4.66644576 116.35707962 1 118 C0.5875 117.58226318 0.175 117.16452637 -0.25 116.73413086 C-9.93123903 106.86620375 -9.93123903 106.86620375 -20.1796875 97.6015625 C-22.38686436 95.65962578 -24.43537614 93.59261876 -26.5 91.5 C-29.13462891 88.83411278 -31.78244069 86.25513213 -34.625 83.8125 C-38.78449696 80.22789287 -42.83762331 76.53339753 -46.875 72.8125 C-47.54225098 72.20575439 -48.20950195 71.59900879 -48.89697266 70.97387695 C-49.52651855 70.39081787 -50.15606445 69.80775879 -50.8046875 69.20703125 C-51.37171387 68.6860083 -51.93874023 68.16498535 -52.52294922 67.62817383 C-55.15223968 64.72987001 -55.98704466 62.67367771 -56.0625 58.75 C-53.68758391 50.36794322 -45.103147 43.95490262 -39.06640625 37.93359375 C-37.81125465 36.67700706 -37.81125465 36.67700706 -36.53074646 35.39503479 C-34.77131896 33.63493065 -33.01064347 31.87607323 -31.2487793 30.1184082 C-28.57030589 27.44529028 -25.89721127 24.76687749 -23.22460938 22.08789062 C-21.50552885 20.36947097 -19.78613811 18.65136158 -18.06640625 16.93359375 C-17.27657852 16.14174179 -16.48675079 15.34988983 -15.67298889 14.53404236 C-11.41973651 10.2984863 -7.08299134 6.22613595 -2.52891541 2.31483459 C-1.66245421 1.56969648 -0.80807977 0.80807977 0 0 Z " fill="#0D0D0D" transform="translate(560,387)"/>
<path d="M0 0 C0.87912828 -0.00406073 1.75825656 -0.00812145 2.6640251 -0.01230523 C5.63670148 -0.02232297 8.60891369 -0.01078306 11.58158016 0.00050831 C13.72351734 -0.0022298 15.86545319 -0.00627973 18.00738567 -0.01153535 C23.91421545 -0.02216746 29.82089491 -0.01396398 35.72771823 -0.00278485 C42.08973322 0.0060269 48.45172789 -0.00237754 54.81374264 -0.00864697 C66.56331986 -0.01760444 78.31284222 -0.012954 90.06241588 -0.00148315 C100.91502935 0.0090403 111.7676255 0.01359398 122.62024403 0.01222134 C123.33926154 0.01213731 124.05827905 0.01205328 124.79908497 0.0119667 C127.7175742 0.01161447 130.63606342 0.01123046 133.55455264 0.01080112 C160.94832197 0.00683346 188.34206067 0.01956646 215.73582123 0.04032768 C240.09196226 0.05869995 264.44807394 0.06450972 288.80422115 0.05905628 C290.3681926 0.05870985 291.93216404 0.05836375 293.49613548 0.05801799 C294.65591334 0.0577615 294.65591334 0.0577615 295.83912106 0.05749982 C299.7309508 0.05664633 303.62278054 0.05582254 307.51461029 0.05503082 C308.66622145 0.0547952 308.66622145 0.0547952 309.84109747 0.05455482 C330.17298586 0.05056809 350.50487141 0.05603582 370.83675808 0.06454211 C373.02351134 0.06544918 375.2102646 0.06635484 377.39701786 0.06725735 C378.84774703 0.06785846 380.2984762 0.06846708 381.74920536 0.06908325 C391.8779495 0.0733106 402.00668809 0.0738804 412.13543283 0.07197776 C425.18519801 0.06953873 438.23492866 0.07379053 451.28468627 0.08918776 C457.58152104 0.09645574 463.87831449 0.10048841 470.17515278 0.0959444 C475.9306026 0.09189196 481.68596684 0.09696457 487.44140362 0.10957048 C489.53218162 0.11251787 491.6229676 0.11203743 493.71374363 0.1079274 C496.53856576 0.1028753 499.36309535 0.10993445 502.18789673 0.12025452 C503.01444044 0.11585803 503.84098416 0.11146155 504.69257465 0.10693184 C510.30272248 0.14642479 510.30272248 0.14642479 512.53102779 2.37473011 C512.77394772 5.12448597 512.77394772 5.12448597 512.76149654 8.58957386 C512.75956295 9.83287464 512.75762936 11.07617542 512.75563717 12.35715199 C512.74339108 13.66232777 512.73114498 14.96750355 512.71852779 16.31223011 C512.71788326 17.6135387 512.71723873 18.9148473 512.71657467 20.25558949 C512.67137378 29.95369216 512.67137378 29.95369216 511.53102779 33.37473011 C510.04602779 33.86973011 510.04602779 33.86973011 508.53102779 34.37473011 C508.86102779 32.39473011 509.19102779 30.41473011 509.53102779 28.37473011 C509.53102779 20.12473011 509.53102779 11.87473011 509.53102779 3.37473011 C338.92102779 3.37473011 168.31102779 3.37473011 -7.46897221 3.37473011 C-9.35894856 23.55677736 -9.35894856 23.55677736 -1.53928471 40.49582386 C-0.89733158 40.93023792 -0.25537846 41.36465199 0.40602779 41.81223011 C1.04282467 42.26469105 1.67962154 42.71715199 2.33571529 43.18332386 C7.71343841 46.10183907 12.73876068 46.66560335 18.76565266 46.63644314 C19.99166631 46.64243723 19.99166631 46.64243723 21.24244791 46.64855242 C23.98676354 46.65953885 26.73087795 46.65632367 29.47521114 46.65320301 C31.46029597 46.65820517 33.44537876 46.66408073 35.43045866 46.67075574 C40.8896684 46.68657933 46.3488267 46.68998773 51.80805659 46.69140434 C57.69350165 46.69509426 63.57891835 46.7102477 69.46434689 46.72401905 C79.66271195 46.74630852 89.86106694 46.76131166 100.0594511 46.77138615 C110.75552982 46.78195989 121.45158938 46.79654333 132.14765453 46.8166666 C132.81268855 46.81791547 133.47772257 46.81916434 134.16290913 46.82045105 C137.54027705 46.8268148 140.91764482 46.83325198 144.29501255 46.83971743 C168.21726182 46.88538082 192.13951715 46.92182817 216.06178951 46.95285511 C239.3020329 46.98301856 262.54226399 47.01735686 285.78249264 47.0573473 C286.85702916 47.0591938 286.85702916 47.0591938 287.95327349 47.06107761 C295.14722787 47.07344446 302.3411821 47.08589618 309.53513622 47.09841009 C324.19006678 47.12390047 338.84499828 47.14882433 353.49993038 47.17340565 C354.5106468 47.17510201 354.5106468 47.17510201 355.54178173 47.17683264 C400.53818283 47.25228865 445.53460403 47.3144975 490.53102779 47.37473011 C490.20102779 48.36473011 489.87102779 49.35473011 489.53102779 50.37473011 C444.08702036 50.42608648 398.64300983 50.47384817 353.19898129 50.50175953 C352.19006324 50.50238079 352.19006324 50.50238079 351.16076301 50.50301459 C336.54300588 50.51199337 321.92524845 50.52030391 307.30749056 50.5279261 C300.13892022 50.5316681 292.97034997 50.53555776 285.80177975 50.53952503 C285.08842177 50.53991731 284.3750638 50.54030959 283.64008891 50.54071375 C260.51912025 50.55349723 237.39817358 50.57603074 214.27721824 50.60362177 C190.5169492 50.63192421 166.75669233 50.65038752 142.99640672 50.65647508 C127.68512852 50.66041887 112.3739124 50.67301288 97.06265526 50.69847951 C87.02955646 50.71431867 76.99649039 50.71913459 66.96337999 50.71523424 C61.17198464 50.71330988 55.38069978 50.71629158 49.589324 50.73234653 C44.28733263 50.74693762 38.98552612 50.74768749 33.68352627 50.7374268 C31.76547471 50.73615849 29.84741165 50.73997065 27.92938275 50.74937966 C25.32055038 50.76143327 22.71238381 50.75492109 20.1035614 50.7438736 C19.3603274 50.75175464 18.61709341 50.75963568 17.85133716 50.76775554 C8.86181608 50.68183783 1.00272634 47.6490348 -5.46897221 41.37473011 C-11.91320788 33.36340983 -11.67167712 25.10146248 -11.71897221 15.18723011 C-11.73959721 14.09474964 -11.76022221 13.00226917 -11.78147221 11.87668324 C-11.78662846 10.83060902 -11.79178471 9.7845348 -11.79709721 8.70676136 C-11.80644291 7.75519154 -11.81578861 6.80362171 -11.82541752 5.82321644 C-11.46897221 3.37473011 -11.46897221 3.37473011 -10.47600514 1.74512035 C-7.25629078 -0.45328161 -3.7656608 -0.03339533 0 0 Z " fill="#0E0D0E" transform="translate(282.4689722061157,645.6252698898315)"/>
<path d="M0 0 C36.59557958 -0.11312683 73.19110816 -0.20259925 109.78682683 -0.25532665 C114.11122144 -0.26157988 118.43561569 -0.26805152 122.76000977 -0.2746582 C123.6208874 -0.27596976 124.48176503 -0.27728131 125.36872987 -0.2786326 C139.29213378 -0.30036535 153.21543405 -0.33977508 167.13877656 -0.38576398 C181.43461975 -0.43258803 195.7304088 -0.46030795 210.02632552 -0.47044247 C218.84156754 -0.47728933 227.65651655 -0.49888275 236.47166834 -0.53958233 C242.52366174 -0.56609423 248.57550456 -0.57398197 254.62755176 -0.56750689 C258.11484685 -0.56431703 261.6016314 -0.56906676 265.08883476 -0.59602737 C268.88133621 -0.62103976 272.6726014 -0.61487352 276.46513367 -0.60127258 C278.09505935 -0.62311889 278.09505935 -0.62311889 279.75791281 -0.64540654 C291.94091853 -0.52794912 302.02485543 3.8905682 311 12 C311.61359375 12.49886719 312.2271875 12.99773437 312.859375 13.51171875 C319.4936232 19.33870224 324.82213187 29.06202082 325.9375 37.875 C325.9684375 39.421875 325.9684375 39.421875 326 41 C325.01 40.67 324.02 40.34 323 40 C322.078125 37.41015625 322.078125 37.41015625 321.25 34.0625 C318.00287306 22.83285268 311.32163656 14.86888831 301.65625 8.44140625 C289.30362589 1.73829111 274.65166551 2.20638514 261 2 C261 2.66 261 3.32 261 4 C176.19 4 91.38 4 4 4 C4 14.56 4 25.12 4 36 C94.09 36 184.18 36 277 36 C277.33 36.99 277.66 37.98 278 39 C186.26 39 94.52 39 0 39 C0 26.13 0 13.26 0 0 Z " fill="#141414" transform="translate(505,250)"/>
<path d="M0 0 C0.33 0 0.66 0 1 0 C1.0686146 39.69587754 1.12150256 79.39174738 1.15319599 119.08767234 C1.15694826 123.77044377 1.16083122 128.45321508 1.16479492 133.13598633 C1.16558185 134.06827121 1.16636878 135.00055608 1.16717956 135.96109202 C1.18024585 151.07135578 1.2039064 166.18158541 1.23145839 181.29182891 C1.25947861 196.78770131 1.27616908 212.2835558 1.28226548 227.7794525 C1.28638897 237.34701975 1.29942876 246.91449057 1.3237494 256.48202815 C1.33956486 263.03618647 1.3444099 269.59029469 1.34050413 276.14447073 C1.33857602 279.93013172 1.34160334 283.71562381 1.35761642 287.50125504 C1.37482435 291.59911845 1.36899147 295.69661881 1.36076355 299.79450989 C1.36950207 300.99974723 1.3782406 302.20498458 1.38724393 303.44674426 C1.38127078 304.53953683 1.37529764 305.63232939 1.36914349 306.75823689 C1.37085223 308.17820106 1.37085223 308.17820106 1.37259549 309.62685138 C1 312 1 312 -0.15115649 313.80461013 C-2.80296321 315.51916459 -4.80360936 315.37192943 -7.95063972 315.36800098 C-9.82708253 315.37663551 -9.82708253 315.37663551 -11.74143326 315.38544446 C-13.13736704 315.37666825 -14.53329918 315.36762811 -15.92922974 315.35835266 C-17.40620957 315.35949445 -18.88318888 315.36196889 -20.36016452 315.36566609 C-24.4292637 315.37208037 -28.49813025 315.3598585 -32.56719875 315.34478557 C-36.95181799 315.33185137 -41.33642139 315.33625992 -45.72105408 315.33883667 C-53.32320937 315.3411752 -60.92529774 315.33322313 -68.52743912 315.31899452 C-79.52874313 315.2989427 -90.52996162 315.30099738 -101.53127657 315.30966558 C-119.39194734 315.32369277 -137.25260565 315.32874887 -155.11328125 315.32397461 C-156.18285465 315.32369486 -157.25242806 315.3234151 -158.35441278 315.32312687 C-173.52590967 315.31874007 -188.69738577 315.3054336 -203.86887322 315.28851613 C-204.93662748 315.2873268 -206.00438174 315.28613748 -207.10449219 315.28491211 C-208.1709468 315.28371852 -209.23740141 315.28252492 -210.33617283 315.28129516 C-228.12160914 315.261989 -245.90695167 315.26576531 -263.69238365 315.28844708 C-274.6644097 315.30151167 -285.63608513 315.29509648 -296.60807554 315.26365712 C-304.12944389 315.24362174 -311.65061073 315.24518059 -319.17198224 315.26370112 C-323.51144928 315.27367836 -327.85033985 315.27384759 -332.18975258 315.24776649 C-336.16515793 315.22405741 -340.13954816 315.2281053 -344.11493157 315.25390067 C-345.55039538 315.25834703 -346.98593468 315.25271112 -348.42130555 315.23578242 C-357.45614282 315.13606934 -363.05303621 316.10523791 -370 322 C-372.9375 323.9375 -372.9375 323.9375 -375 325 C-375.66 324.67 -376.32 324.34 -377 324 C-374.04983186 320.82559105 -370.99784714 318.58078442 -367.3125 316.3125 C-363.97781689 314.39067278 -363.97781689 314.39067278 -361 312 C-359.08695231 311.90232485 -357.17023822 311.87628682 -355.25469875 311.87695217 C-353.37067857 311.8739656 -353.37067857 311.8739656 -351.44859737 311.87091869 C-350.03664916 311.87377229 -348.62470114 311.87671789 -347.2127533 311.87974548 C-345.72696192 311.87930991 -344.24117062 311.87843527 -342.75537974 311.87715632 C-338.6530628 311.87490858 -334.55077172 311.87893643 -330.44845808 311.88393438 C-326.03193813 311.88823472 -321.61541976 311.88679275 -317.19889832 311.8860321 C-309.54050791 311.8855066 -301.88212599 311.88865612 -294.22373772 311.89426994 C-283.15086087 311.90238142 -272.07798815 311.9049998 -261.00510866 311.90625793 C-243.04205904 311.90844901 -225.07901395 311.9151106 -207.1159668 311.92456055 C-189.66186547 311.93373323 -172.20776536 311.94081477 -154.75366211 311.94506836 C-153.14107858 311.94546244 -153.14107858 311.94546244 -151.49591761 311.94586449 C-146.1029226 311.94716949 -140.70992758 311.9484332 -135.31693256 311.94967639 C-90.54461857 311.96005073 -45.77230952 311.97767055 -1 312 C-1.00037972 311.34480885 -1.00075944 310.68961769 -1.00115067 310.01457226 C-1.02350865 271.21825857 -1.04067639 232.4219457 -1.05106533 193.62562687 C-1.0523161 188.97160931 -1.05361041 184.31759176 -1.05493164 179.66357422 C-1.05532511 178.27372528 -1.05532511 178.27372528 -1.05572652 176.85579859 C-1.06008274 161.83540674 -1.06797002 146.8150187 -1.0771528 131.79462911 C-1.08649067 116.39255068 -1.0920559 100.99047424 -1.09408849 85.58839309 C-1.09546344 76.07767279 -1.09981252 66.56696326 -1.10791647 57.05624627 C-1.11318557 50.54228546 -1.11480392 44.02833026 -1.11350138 37.51436748 C-1.11285826 33.75116714 -1.1138726 29.98798568 -1.11920547 26.22478867 C-1.12493388 22.15294921 -1.12299912 18.0811504 -1.12025452 14.00930786 C-1.12462378 12.20875543 -1.12462378 12.20875543 -1.12908131 10.3718282 C-1.12709026 9.28799347 -1.12509921 8.20415875 -1.12304783 7.08748055 C-1.12342755 6.14653357 -1.12380727 5.20558659 -1.1241985 4.23612607 C-1 2 -1 2 0 0 Z " fill="#080808" transform="translate(794,297)"/>
<path d="M0 0 C49.45162651 -0.03422142 98.90325385 -0.06606463 148.35488892 -0.08468628 C149.45195542 -0.08510045 149.45195542 -0.08510045 150.57118489 -0.08552299 C166.46427898 -0.09150818 182.35737321 -0.09704863 198.25046762 -0.10213066 C206.04393157 -0.10462543 213.83739548 -0.10721852 221.63085938 -0.10986328 C222.40642121 -0.1101248 223.18198305 -0.11038632 223.98104677 -0.11065576 C249.1395111 -0.11918527 274.29796648 -0.13421296 299.45642538 -0.15259444 C325.3003517 -0.17144255 351.14427305 -0.18376692 376.98820612 -0.18782998 C380.63473208 -0.18840633 384.28125803 -0.1890576 387.92778397 -0.18975449 C389.00436435 -0.18995676 389.00436435 -0.18995676 390.10269383 -0.19016311 C401.67686884 -0.19253067 413.25102855 -0.20181786 424.82519731 -0.21366407 C436.44850879 -0.22541395 448.07180129 -0.22977972 459.69511889 -0.22700275 C465.99801366 -0.22571581 472.30086337 -0.22775302 478.60375023 -0.23841095 C484.36486228 -0.24808218 490.12589859 -0.24867516 495.88701399 -0.24179779 C497.979904 -0.24094672 500.07279858 -0.24353549 502.1656795 -0.24976636 C504.99337754 -0.25770072 507.82079598 -0.25352296 510.648489 -0.24609566 C511.88959088 -0.2539767 511.88959088 -0.2539767 513.15576553 -0.26201695 C518.7717084 -0.2282916 518.7717084 -0.2282916 521 2 C521.24291992 4.74975586 521.24291992 4.74975586 521.23046875 8.21484375 C521.22853516 9.45814453 521.22660156 10.70144531 521.22460938 11.98242188 C521.21236328 13.28759766 521.20011719 14.59277344 521.1875 15.9375 C521.18685547 17.23880859 521.18621094 18.54011719 521.18554688 19.88085938 C521.14034598 29.57896205 521.14034598 29.57896205 520 33 C518.515 33.495 518.515 33.495 517 34 C517.33 32.02 517.66 30.04 518 28 C518 19.75 518 11.5 518 3 C346.73 2.67 175.46 2.34 -1 2 C-0.67 1.34 -0.34 0.68 0 0 Z " fill="#000000" transform="translate(274,646)"/>
<path d="M0 0 C0.66 0 1.32 0 2 0 C2.02286684 49.52225626 2.04049846 99.04451199 2.05106533 148.56677248 C2.0523161 154.40747073 2.05361042 160.24816896 2.05493164 166.08886719 C2.05532511 167.83310398 2.05532511 167.83310398 2.05572652 169.61257787 C2.06008307 188.46438623 2.06797053 207.31619156 2.0771528 226.16799812 C2.08648976 245.49799971 2.0920557 264.8279997 2.09408849 284.15800345 C2.09546363 296.09477056 2.09981373 308.03152909 2.10791647 319.96829356 C2.11318446 328.14321201 2.11480417 336.318126 2.11350138 344.49304603 C2.11285808 349.21622118 2.11387458 353.93938129 2.11920547 358.66255379 C2.12404348 362.9803199 2.12433598 367.29806076 2.12089889 371.61582799 C2.1204736 373.18382141 2.12176596 374.75181636 2.12488318 376.31980674 C2.12885458 378.43948512 2.1267587 380.55907044 2.12304783 382.67874718 C2.12342755 383.8596774 2.12380727 385.04060763 2.1241985 386.25732362 C2 389 2 389 1 391 C0.34 391 -0.32 391 -1 391 C-0.67 261.97 -0.34 132.94 0 0 Z " fill="#000000" transform="translate(829,291)"/>
<path d="M0 0 C19.47 0 38.94 0 59 0 C59.375 19.1875 59.375 19.1875 59.47802734 25.15698242 C59.73002909 37.54845294 60.13814063 49.68867471 64.875 61.3125 C65.13748535 61.98474609 65.3999707 62.65699219 65.67041016 63.34960938 C67.53185108 68.0447668 69.59567454 72.56124531 72 77 C68.21230863 75.78252777 66.79660147 73.52804314 64.98193359 70.09570312 C63.172969 66.23489952 61.71187388 62.27477148 60.3125 58.25 C60.0043335 57.37053711 59.69616699 56.49107422 59.37866211 55.58496094 C57.29628266 49.42025367 55.89473662 43.55640508 56 37 C55.67 37 55.34 37 55 37 C55 26.44 55 15.88 55 5 C38.5 5 22 5 5 5 C5.03960073 16.14443325 5.03960073 16.14443325 5.09008789 27.28881836 C5.09300714 28.68082605 5.09555567 30.07283459 5.09765625 31.46484375 C5.10277222 32.19384888 5.10788818 32.922854 5.11315918 33.6739502 C5.11347011 35.44970076 5.06228515 37.22534208 5 39 C4.505 39.495 4.505 39.495 4 40 C3.76572222 42.01594582 3.58663876 44.038474 3.4375 46.0625 C3.35371094 47.16722656 3.26992187 48.27195312 3.18359375 49.41015625 C3.12300781 50.26480469 3.06242188 51.11945313 3 52 C2.34 51.67 1.68 51.34 1 51 C-0.38175965 45.61795077 -0.1276503 40.08685669 -0.09765625 34.5703125 C-0.09664917 33.69173584 -0.09564209 32.81315918 -0.09460449 31.90795898 C-0.08939882 28.64695925 -0.07543766 25.38597822 -0.0625 22.125 C-0.041875 14.82375 -0.02125 7.5225 0 0 Z " fill="#141414" transform="translate(200,443)"/>
<path d="M0 0 C0.33 0 0.66 0 1 0 C1.0686146 39.69587754 1.12150256 79.39174738 1.15319599 119.08767234 C1.15694826 123.77044377 1.16083122 128.45321508 1.16479492 133.13598633 C1.16558185 134.06827121 1.16636878 135.00055608 1.16717956 135.96109202 C1.18024585 151.07135578 1.2039064 166.18158541 1.23145839 181.29182891 C1.25947861 196.78770131 1.27616908 212.2835558 1.28226548 227.7794525 C1.28638897 237.34701975 1.29942876 246.91449057 1.3237494 256.48202815 C1.33956486 263.03618647 1.3444099 269.59029469 1.34050413 276.14447073 C1.33857602 279.93013172 1.34160334 283.71562381 1.35761642 287.50125504 C1.37482435 291.59911845 1.36899147 295.69661881 1.36076355 299.79450989 C1.36950207 300.99974723 1.3782406 302.20498458 1.38724393 303.44674426 C1.38127078 304.53953683 1.37529764 305.63232939 1.36914349 306.75823689 C1.37085223 308.17820106 1.37085223 308.17820106 1.37259549 309.62685138 C1 312 1 312 -0.31335467 313.80929965 C-3.10111246 315.77733888 -5.85632355 315.27918376 -9.1875 315.1875 C-10.45980469 315.16042969 -11.73210938 315.13335938 -13.04296875 315.10546875 C-14.50669922 315.05326172 -14.50669922 315.05326172 -16 315 C-15.67 314.01 -15.34 313.02 -15 312 C-10.38 312 -5.76 312 -1 312 C-1.00092179 310.40418657 -1.00184359 308.80837315 -1.00279331 307.16420174 C-1.02443181 269.3180115 -1.04093081 231.47182201 -1.05106533 193.62562687 C-1.0523161 188.97160931 -1.05361041 184.31759176 -1.05493164 179.66357422 C-1.05519395 178.73700826 -1.05545626 177.8104423 -1.05572652 176.85579859 C-1.06008274 161.83540674 -1.06797002 146.8150187 -1.0771528 131.79462911 C-1.08649067 116.39255068 -1.0920559 100.99047424 -1.09408849 85.58839309 C-1.09546344 76.07767279 -1.09981252 66.56696326 -1.10791647 57.05624627 C-1.11318557 50.54228546 -1.11480392 44.02833026 -1.11350138 37.51436748 C-1.11285826 33.75116714 -1.1138726 29.98798568 -1.11920547 26.22478867 C-1.12493388 22.15294921 -1.12299912 18.0811504 -1.12025452 14.00930786 C-1.12316736 12.80893957 -1.1260802 11.60857128 -1.12908131 10.3718282 C-1.12709026 9.28799347 -1.12509921 8.20415875 -1.12304783 7.08748055 C-1.12342755 6.14653357 -1.12380727 5.20558659 -1.1241985 4.23612607 C-1 2 -1 2 0 0 Z " fill="#000000" transform="translate(794,297)"/>
<path d="M0 0 C0.66 0.33 1.32 0.66 2 1 C1.51249268 1.69456299 1.02498535 2.38912598 0.52270508 3.10473633 C-1.24405821 6.46405104 -1.37358151 8.55014788 -1.36328125 12.32421875 C-1.36231445 14.11375977 -1.36231445 14.11375977 -1.36132812 15.93945312 C-1.34521484 17.17630859 -1.32910156 18.41316406 -1.3125 19.6875 C-1.31572266 20.93595703 -1.31894531 22.18441406 -1.32226562 23.47070312 C-1.7682279 29.82247695 -1.7682279 29.82247695 1 35 C3.97984768 36.00913304 6.75042573 36.12890062 9.88067245 36.1386652 C11.36086998 36.14687687 11.36086998 36.14687687 12.87097049 36.15525442 C13.95267559 36.15623253 15.0343807 36.15721064 16.14886475 36.15821838 C17.87520862 36.16562535 17.87520862 36.16562535 19.63642812 36.17318195 C22.83123489 36.18589545 26.02601811 36.19417959 29.2208426 36.20060861 C32.66594326 36.2086153 36.11102182 36.22231216 39.55610657 36.23532104 C45.52505552 36.25707996 51.49400671 36.2752266 57.46297455 36.29092598 C66.0931199 36.31362992 74.72324076 36.34177203 83.35336533 36.37124526 C97.35486946 36.41891473 111.3563836 36.46218067 125.35791016 36.50268555 C138.9598061 36.54204375 152.56169315 36.58347076 166.16357422 36.62768555 C167.42101651 36.63177196 167.42101651 36.63177196 168.70386168 36.63594092 C172.90930328 36.64962045 177.11474474 36.66334071 181.32018614 36.67708123 C216.21343899 36.79103588 251.10671068 36.89784748 286 37 C286.33 37.66 286.66 38.32 287 39 C250.65043624 39.11439901 214.300904 39.20252527 177.95119734 39.25532665 C173.6615564 39.26158032 169.37191581 39.26805192 165.08227539 39.2746582 C163.80126898 39.27662553 163.80126898 39.27662553 162.49438366 39.2786326 C148.65933979 39.30039994 134.82439961 39.33982876 120.98941729 39.38576398 C106.79757388 39.43249171 92.60578484 39.46028759 78.41386765 39.47044247 C69.65387944 39.47730931 60.89418427 39.49901136 52.13428625 39.53958233 C46.13047367 39.56597527 40.126813 39.57400886 34.1229466 39.56750689 C30.65689498 39.56429854 27.19135607 39.56927863 23.7253952 39.59602737 C19.96949633 39.62079851 16.21486503 39.61496156 12.4589386 39.60127258 C11.36069159 39.61583679 10.26244459 39.630401 9.13091737 39.64540654 C0.92532831 39.56422178 0.92532831 39.56422178 -2.15368366 36.52492046 C-2.76296805 35.69169671 -3.37225245 34.85847296 -4 34 C-4.33 33.67 -4.66 33.34 -5 33 C-5.3389344 28.61230115 -5.32519037 24.21159601 -5.375 19.8125 C-5.43107422 17.96301758 -5.43107422 17.96301758 -5.48828125 16.07617188 C-5.58740296 5.87214221 -5.58740296 5.87214221 -2.4765625 2.13671875 C-1.65929687 1.43160156 -0.84203125 0.72648438 0 0 Z " fill="#030303" transform="translate(371,800)"/>
<path d="M0 0 C0.66 0 1.32 0 2 0 C2.00364563 0.75009338 2.00729126 1.50018677 2.01104736 2.27301025 C2.04914211 9.39215178 2.10623437 16.51084019 2.18390274 23.62964249 C2.22316996 27.2882677 2.25545866 30.94665971 2.27099609 34.60546875 C2.28630153 38.14601888 2.32098602 41.68592697 2.36830902 45.22618866 C2.39005149 47.21321279 2.39246172 49.20041885 2.39434814 51.18756104 C2.56521231 61.93559794 4.92760859 71.28022512 10.5 80.5 C11.0671875 81.4590625 11.634375 82.418125 12.21875 83.40625 C13.92523669 86.06027883 13.92523669 86.06027883 16.21875 88.21875 C17.10046875 89.10046875 17.10046875 89.10046875 18 90 C18 90.66 18 91.32 18 92 C18.53625 92.226875 19.0725 92.45375 19.625 92.6875 C22 94 22 94 24.5 96.25 C36.25661346 106.28032591 49.94351535 107.29964301 64.65625 107.4140625 C66.21535629 107.43289347 67.77445367 107.45247427 69.33354187 107.4727478 C73.52025071 107.52454654 77.70699228 107.56404417 81.89385605 107.60089111 C85.38435081 107.63318094 88.87474579 107.6729309 92.36516476 107.71246719 C110.226311 107.91295205 128.08692459 108.0307475 145.94921875 108.0234375 C146.69050648 108.02316181 147.4317942 108.02288612 148.1955452 108.02260208 C155.85442514 108.0184355 163.51308235 108.00008125 171.171875 107.96337891 C184.48683022 107.91106981 197.71434233 108.07542142 211 109 C211 109.33 211 109.66 211 110 C189.30283522 110.11699287 167.60572274 110.20506624 145.90830612 110.25906086 C135.83296897 110.28480201 125.75782824 110.31987413 115.68261719 110.37719727 C106.8972762 110.42715767 98.11207752 110.45932071 89.32659841 110.47044247 C84.67811155 110.47693989 80.03003167 110.49212472 75.38167572 110.52865028 C70.99854513 110.56280988 66.61598575 110.57301307 62.23273468 110.56553841 C60.63163642 110.5669041 59.03051731 110.57671721 57.42953491 110.59602737 C40.64466194 110.78839696 28.63686323 105.18210164 16.3125 93.75 C4.25810757 80.97292217 -0.82724848 66.94376335 -0.48828125 49.51171875 C-0.47892629 48.07299545 -0.47182292 46.63425595 -0.46684265 45.19551086 C-0.44798282 41.45514968 -0.39907272 37.71579893 -0.34332275 33.97583008 C-0.29166837 30.14092672 -0.26923132 26.30585598 -0.24414062 22.47070312 C-0.19092579 14.98001396 -0.10587921 7.4901499 0 0 Z " fill="#060606" transform="translate(238,619)"/>
<path d="M0 0 C1.73470996 4.11623863 0.09422287 7.57264012 -1.30859375 11.5390625 C-1.55416519 12.26112885 -1.79973663 12.98319519 -2.05274963 13.72714233 C-2.83780227 16.02994888 -3.63698907 18.32752642 -4.4375 20.625 C-5.23181944 22.93042276 -6.0231657 25.23681815 -6.8115387 27.54428101 C-7.30272456 28.97912282 -7.79784341 30.41262536 -8.29722595 31.84463501 C-9.56722354 35.34057176 -9.56722354 35.34057176 -10 39 C29.6 39.33 69.2 39.66 110 40 C107.03 31.09 104.06 22.18 101 13 C101.33 11.02 101.66 9.04 102 7 C102.33 7 102.66 7 103 7 C103.34611328 8.12921875 103.34611328 8.12921875 103.69921875 9.28125 C104.02535156 10.3434375 104.35148438 11.405625 104.6875 12.5 C105.22697266 14.2634375 105.22697266 14.2634375 105.77734375 16.0625 C106.62060731 18.79980987 107.4915894 21.52666273 108.37890625 24.25 C108.60682861 24.95705078 108.83475098 25.66410156 109.06958008 26.39257812 C109.51539869 27.77338409 109.96685959 29.15238396 110.42456055 30.52929688 C111.57021042 34.09973337 112.4626128 37.24467256 112 41 C109.48446674 43.51553326 108.66555587 43.25427101 105.18605042 43.26742554 C104.16952393 43.27595551 103.15299744 43.28448547 102.10566711 43.29327393 C100.98613144 43.29236755 99.86659576 43.29146118 98.71313477 43.29052734 C96.94965195 43.30060318 96.94965195 43.30060318 95.15054321 43.31088257 C91.92118431 43.32665702 88.69197952 43.33323942 85.46258664 43.33451414 C82.7686618 43.33641126 80.07476175 43.34376658 77.38084644 43.35085833 C71.02626445 43.36715331 64.67173915 43.37202626 58.31713867 43.37060547 C51.75732535 43.36940356 45.1978408 43.39051225 38.6381107 43.4220928 C33.01002881 43.44822468 27.3820545 43.45897408 21.75391239 43.45769465 C18.39074623 43.45718412 15.02787216 43.46291691 11.66476631 43.48405075 C7.91498345 43.50355984 4.16605523 43.49793151 0.41625977 43.48583984 C-1.2600074 43.50269836 -1.2600074 43.50269836 -2.97013855 43.51989746 C-3.98948486 43.51150848 -5.00883118 43.50311951 -6.05906677 43.49447632 C-6.94599936 43.49556585 -7.83293196 43.49665539 -8.74674129 43.49777794 C-11 43 -11 43 -12.82148838 41.08606911 C-14 39 -14 39 -13.79711914 37.12841797 C-13.52504639 36.46471191 -13.25297363 35.80100586 -12.97265625 35.1171875 C-12.52043701 33.93721191 -12.52043701 33.93721191 -12.05908203 32.73339844 C-11.70958496 31.83137695 -11.36008789 30.92935547 -11 30 C-10.25846885 27.77709723 -9.52877988 25.55022216 -8.80859375 23.3203125 C-8.0183103 20.92184826 -7.22794415 18.52341128 -6.4375 16.125 C-6.03853516 14.90296875 -5.63957031 13.6809375 -5.22851562 12.421875 C-4.84244141 11.25398437 -4.45636719 10.08609375 -4.05859375 8.8828125 C-3.71111084 7.82465332 -3.36362793 6.76649414 -3.00561523 5.67626953 C-2 3 -2 3 0 0 Z " fill="#060606" transform="translate(473,758)"/>
<path d="M0 0 C22.50457666 -0.04667834 45.00914536 -0.08196838 67.51376057 -0.10362434 C77.96255929 -0.11394592 88.41132798 -0.12802307 98.86010742 -0.15087891 C107.9650829 -0.17078582 117.07003663 -0.18371002 126.17503327 -0.18817699 C130.99802129 -0.19078895 135.82094707 -0.19694645 140.64391518 -0.21146011 C145.18037579 -0.22500142 149.71674833 -0.22922966 154.25322723 -0.22621536 C155.92096879 -0.22676708 157.58871318 -0.23076503 159.2564373 -0.23841095 C161.52823003 -0.2483183 163.79968741 -0.24598445 166.07148743 -0.24050903 C167.34448354 -0.24235262 168.61747965 -0.24419621 169.9290514 -0.24609566 C173 0 173 0 176 2 C140.47018547 3.05891036 104.954947 3.12660958 69.41374505 3.07202661 C61.81922906 3.06057814 54.22471185 3.05528388 46.6301893 3.05032361 C31.08678283 3.04004304 15.54339375 3.02261123 0 3 C0 4.65 0 6.3 0 8 C-0.66 7.67 -1.32 7.34 -2 7 C-1.125 2.25 -1.125 2.25 0 0 Z " fill="#050505" transform="translate(598,727)"/>
<path d="M0 0 C0.70427124 -0.00335861 1.40854248 -0.00671722 2.13415527 -0.01017761 C4.46925609 -0.01969899 6.80428526 -0.02163149 9.1394043 -0.02270508 C10.76124603 -0.02591748 12.38308747 -0.02928154 14.00492859 -0.03279114 C17.40872875 -0.03878583 20.81250352 -0.04063075 24.21630859 -0.04003906 C28.57428516 -0.03993757 32.93209833 -0.05357507 37.2900362 -0.07081127 C40.64180751 -0.08194149 43.99353949 -0.08395793 47.34532738 -0.08342934 C48.95165761 -0.08460848 50.55798888 -0.08902656 52.16430092 -0.0967617 C54.41433691 -0.10657968 56.66402061 -0.10367625 58.9140625 -0.09765625 C60.19376419 -0.09908127 61.47346588 -0.10050629 62.79194641 -0.10197449 C66.04899126 0.13774669 68.25870254 0.66638757 71.15112305 2.14526367 C74.71015197 6.94526978 76.08714788 13.79933971 77.90112305 19.45776367 C78.12413086 20.15144043 78.34713867 20.84511719 78.5769043 21.55981445 C79.62359836 24.94922707 80.15112305 27.56015148 80.15112305 31.14526367 C79.49112305 31.14526367 78.83112305 31.14526367 78.15112305 31.14526367 C75.18112305 22.23526367 72.21112305 13.32526367 69.15112305 4.14526367 C43.08112305 4.14526367 17.01112305 4.14526367 -9.84887695 4.14526367 C-9.51887695 3.15526367 -9.18887695 2.16526367 -8.84887695 1.14526367 C-5.90650237 -0.32592362 -3.28475335 0.00980245 0 0 Z " fill="#080808" transform="translate(491.848876953125,726.854736328125)"/>
<path d="M0 0 C3.77720846 1.59600357 6.38077338 3.97726412 9.375 6.75 C9.89030273 7.22663086 10.40560547 7.70326172 10.93652344 8.19433594 C15.72292772 12.66031148 20.34891024 17.28556767 24.92724609 21.96386719 C27.82666321 24.90873509 30.78182751 27.72001484 33.91015625 30.421875 C38.17867118 34.11106951 42.19728725 38.01360563 46.1875 42 C46.87263672 42.67289062 47.55777344 43.34578125 48.26367188 44.0390625 C58.43424302 54.18026722 58.43424302 54.18026722 59.48828125 59.43359375 C59.32552083 61.2890625 59.16276042 63.14453125 59 65 C58.34 64.67 57.68 64.34 57 64 C56.773125 62.989375 56.54625 61.97875 56.3125 60.9375 C55.21295391 56.53931565 52.54709459 53.90504316 49.4609375 50.69921875 C48 49 48 49 48 47 C47.01 46.67 46.02 46.34 45 46 C45 45.34 45 44.68 45 44 C44.20613892 43.69618408 44.20613892 43.69618408 43.39624023 43.38623047 C39.94456771 41.38943 37.43456824 38.65954006 34.66015625 35.8203125 C34.05618515 35.21113983 33.45221405 34.60196716 32.8299408 33.97433472 C30.90264029 32.0292538 28.98215534 30.07762423 27.0625 28.125 C25.14558462 26.18037309 23.22719924 24.23725681 21.30577087 22.29708862 C20.11199561 21.09116048 18.92090285 19.88256904 17.73292542 18.67092896 C14.63803366 15.53910545 11.47600541 12.71545317 8 10 C7.13375 9.113125 6.2675 8.22625 5.375 7.3125 C3.14651154 4.80703206 3.14651154 4.80703206 0 4 C-0.20625 4.66 -0.4125 5.32 -0.625 6 C-2.48316152 10.0541706 -4.87539326 13.79588673 -8 17 C-8.99 17 -9.98 17 -11 17 C-9.52869627 12.6426774 -7.16919385 9.28065866 -4.375 5.6875 C-3.95476563 5.13771484 -3.53453125 4.58792969 -3.1015625 4.02148438 C-2.07279961 2.67707832 -1.0370991 1.33798587 0 0 Z " fill="#0B0B0B" transform="translate(683,385)"/>
<path d="M0 0 C0.66 0.33 1.32 0.66 2 1 C1.08186523 1.91289795 0.16373047 2.8257959 -0.78222656 3.76635742 C-4.19901225 7.16499642 -7.61244928 10.56698195 -11.02490234 13.9699707 C-12.50023225 15.44028248 -13.97645982 16.9096941 -15.45361328 18.37817383 C-17.58083886 20.49322337 -19.70477897 22.61152534 -21.828125 24.73046875 C-22.48556702 25.38274948 -23.14300903 26.03503021 -23.82037354 26.70707703 C-26.49022894 29.37660736 -28.98535941 31.98138233 -31.32324219 34.9543457 C-31.87657227 35.62941162 -32.42990234 36.30447754 -33 37 C-33.66 37 -34.32 37 -35 37 C-35.99 39.475 -35.99 39.475 -37 42 C-33.04 46.29 -29.08 50.58 -25 55 C-23.02 54.505 -23.02 54.505 -21 54 C-20.32962879 52.66852538 -19.66396443 51.33468103 -19 50 C-16.97469233 47.84731449 -14.7685526 45.90245396 -12.5625 43.9375 C-11.39671779 42.88457679 -10.23134005 41.83120554 -9.06640625 40.77734375 C-8.55021729 40.31577881 -8.03402832 39.85421387 -7.50219727 39.37866211 C-5.95669209 37.96025358 -4.47295945 36.49329888 -3 35 C-2.34 35.66 -1.68 36.32 -1 37 C-8.26 44.26 -15.52 51.52 -23 59 C-30.42980651 55.28509674 -35.87545109 48.44701315 -41 42 C-39.71670858 39.14862356 -38.43591183 37.22245778 -36.11328125 35.13671875 C-35.51515625 34.59023682 -34.91703125 34.04375488 -34.30078125 33.48071289 C-33.64464844 32.88895264 -32.98851562 32.29719238 -32.3125 31.6875 C-24.84733737 24.83416379 -17.64851051 17.74233263 -10.5 10.5625 C-9.97806061 10.03860687 -9.45612122 9.51471375 -8.91836548 8.97494507 C-5.94216631 5.98667445 -2.96952984 2.99490043 0 0 Z " fill="#070707" transform="translate(710,446)"/>
<path d="M0 0 C-0.66 0.99 -1.32 1.98 -2 3 C-2.99 3 -3.98 3 -5 3 C-5 3.66 -5 4.32 -5 5 C-2.69 5.33 -0.38 5.66 2 6 C2 6.33 2 6.66 2 7 C-6.10433476 7.15676762 -14.20876982 7.30482015 -22.31344128 7.4429636 C-26.08038497 7.50741884 -29.84723989 7.57442724 -33.61401367 7.64819336 C-53.45472427 8.03445006 -73.17133064 7.92805039 -93 7 C-93 6.67 -93 6.34 -93 6 C-82.44 5.67 -71.88 5.34 -61 5 C-61 4.34 -61 3.68 -61 3 C-59.85789062 3.13277344 -58.71578125 3.26554688 -57.5390625 3.40234375 C-43.37764451 4.9702362 -29.23763756 5.58677928 -15 6 C-15 5.01 -15 4.02 -15 3 C-15.99 2.67 -16.98 2.34 -18 2 C-15.93827387 1.66191314 -13.8755797 1.32972639 -11.8125 1 C-10.66394531 0.814375 -9.51539063 0.62875 -8.33203125 0.4375 C-5.49584607 0.06510523 -2.85280436 -0.08596021 0 0 Z " fill="#161616" transform="translate(368,638)"/>
<path d="M0 0 C0.495 1.485 0.495 1.485 1 3 C-0.14082336 5.15911865 -0.14082336 5.15911865 -2 7 C-4.18302917 7.48101807 -4.18302917 7.48101807 -6.74682617 7.45410156 C-7.70759567 7.45379944 -8.66836517 7.45349731 -9.6582489 7.45318604 C-10.69270645 7.43254089 -11.727164 7.41189575 -12.79296875 7.390625 C-14.38471672 7.38213531 -14.38471672 7.38213531 -16.00862122 7.37347412 C-19.40203735 7.35106143 -22.79440235 7.30085449 -26.1875 7.25 C-28.48631289 7.2299414 -30.78514231 7.21168952 -33.08398438 7.1953125 C-38.72301564 7.1511807 -44.36143273 7.08421972 -50 7 C-49.67 6.01 -49.34 5.02 -49 4 C-48.1455555 3.99120064 -48.1455555 3.99120064 -47.27384949 3.98222351 C-41.35272804 3.91836036 -35.43215371 3.83395962 -29.51147461 3.73754883 C-27.30093594 3.70426492 -25.09031157 3.67624388 -22.87963867 3.65356445 C-19.70454334 3.62008241 -16.53023583 3.56776948 -13.35546875 3.51171875 C-12.36475876 3.50532883 -11.37404877 3.4989389 -10.35331726 3.49235535 C-9.43258926 3.47256119 -8.51186127 3.45276703 -7.56323242 3.43237305 C-6.7527092 3.42126999 -5.94218597 3.41016693 -5.10710144 3.39872742 C-2.53840719 2.91265266 -1.63745758 1.98546334 0 0 Z " fill="#1F1F20" transform="translate(426,793)"/>
<path d="M0 0 C3.20576911 1.41490359 5.37004041 3.11300792 7.85058594 5.57592773 C8.59105164 6.30686142 9.33151733 7.0377951 10.09442139 7.7908783 C10.88310608 8.5804744 11.67179077 9.3700705 12.484375 10.18359375 C13.29996887 10.9949025 14.11556274 11.80621124 14.95587158 12.6421051 C16.67641806 14.35691258 18.39435498 16.07434175 20.10986328 17.79418945 C22.74514298 20.43263714 25.39347964 23.05747137 28.04296875 25.68164062 C29.71174767 27.34814745 31.37974371 29.01543868 33.046875 30.68359375 C34.24204742 31.86495155 34.24204742 31.86495155 35.46136475 33.07017517 C36.1892218 33.80426102 36.91707886 34.53834686 37.66699219 35.29467773 C38.31222839 35.93928452 38.9574646 36.5838913 39.62225342 37.24803162 C41 39 41 39 41 42 C39.02 42.495 39.02 42.495 37 43 C36.95286865 42.30165039 36.9057373 41.60330078 36.85717773 40.88378906 C35.67845213 36.91822174 33.18006205 34.6633319 30.28515625 31.859375 C29.71421738 31.29172424 29.1432785 30.72407349 28.55503845 30.13922119 C27.34999281 28.94457566 26.14020233 27.75469972 24.92602539 26.56933594 C23.06382922 24.7512977 21.21539149 22.92015347 19.36914062 21.0859375 C18.19608423 19.92630216 17.02228131 18.76742138 15.84765625 17.609375 C15.0147683 16.78756744 15.0147683 16.78756744 14.16505432 15.94915771 C11.33748545 13.13338064 11.33748545 13.13338064 8 11 C8 10.34 8 9.68 8 9 C7.4225 8.7525 6.845 8.505 6.25 8.25 C3.65091342 6.80606301 1.92163162 5.26478013 0 3 C0 2.01 0 1.02 0 0 Z " fill="#050505" transform="translate(536,447)"/>
<path d="M0 0 C0.33 0 0.66 0 1 0 C0.67 3.3 0.34 6.6 0 10 C-7.59 10 -15.18 10 -23 10 C-23 9.01 -23 8.02 -23 7 C-18.78097611 5.5936587 -14.79596753 6.36260371 -10.44921875 6.859375 C-6.54331824 7.27355439 -6.54331824 7.27355439 -3.10546875 5.66015625 C-1.89046224 3.83549983 -0.89655916 2.00001658 0 0 Z " fill="#040405" transform="translate(605,532)"/>
<path d="M0 0 C1 3 1 3 -0.23046875 5.49609375 C-5.66577065 13.66531996 -11.87172777 20.2994241 -19 27 C-19.66 26.67 -20.32 26.34 -21 26 C-20.45472656 25.42894531 -19.90945313 24.85789062 -19.34765625 24.26953125 C-13.91223914 18.42529644 -9.35805904 12.42009236 -4.9453125 5.78515625 C-3.40596698 3.58123385 -1.98279325 1.78950208 0 0 Z " fill="#060606" transform="translate(411,514)"/>
<path d="M0 0 C0.93065133 2.60582371 1.14917407 3.64198224 0.0625 6.25 C-0.4634375 7.11625 -0.4634375 7.11625 -1 8 C-0.34 8.33 0.32 8.66 1 9 C1 10.32 1 11.64 1 13 C1.5775 13.2475 2.155 13.495 2.75 13.75 C5.32939979 15.18299988 7.06121592 16.78424676 9 19 C9 19.66 9 20.32 9 21 C3.26157939 19.4349762 -1.24014173 15.01526205 -4.19921875 9.9453125 C-5.19042751 7.53740049 -5.14324787 5.57846169 -5 3 C-4.67 3.99 -4.34 4.98 -4 6 C-3.34 6 -2.68 6 -2 6 C-1.855625 5.195625 -1.71125 4.39125 -1.5625 3.5625 C-1 1 -1 1 0 0 Z " fill="#161616" transform="translate(509,441)"/>
<path d="M0 0 C3.32104626 0.55350771 6.16244492 1.14091219 9 3 C11.0683099 5.99904936 11.19927643 8.41302423 11 12 C10.34 12 9.68 12 9 12 C8.62875 11.0925 8.2575 10.185 7.875 9.25 C5.73631614 5.54294797 3.58194757 4.22876738 0 2 C0 1.34 0 0.68 0 0 Z " fill="#080808" transform="translate(783,287)"/>
<path d="M0 0 C0.66 0.33 1.32 0.66 2 1 C0.1875 3.5 0.1875 3.5 -2 6 C-2.99 6 -3.98 6 -5 6 C-5.33 6.99 -5.66 7.98 -6 9 C-9.0625 10.1875 -9.0625 10.1875 -12 11 C-10.73953157 7.21859472 -9.27125859 6.55893684 -6 4.375 C-2.85077459 2.37387211 -2.85077459 2.37387211 0 0 Z " fill="#121212" transform="translate(391,537)"/>
<path d="M0 0 C-1.82748903 2.46313739 -3.22976216 3.83428618 -6.26953125 4.48828125 C-8.51479346 4.72518293 -10.74455578 4.90361349 -13 5 C-11.5977422 2.1954844 -9.93929378 1.9557882 -7.0625 0.8125 C-6.16660156 0.44769531 -5.27070312 0.08289063 -4.34765625 -0.29296875 C-2 -1 -2 -1 0 0 Z " fill="#080808" transform="translate(797,723)"/>
<path d="M0 0 C0.33 0.99 0.66 1.98 1 3 C0.01 3.99 -0.98 4.98 -2 6 C-2.99 5.67 -3.98 5.34 -5 5 C-3.35 3.35 -1.7 1.7 0 0 Z " fill="#020101" transform="translate(540,438)"/>
<path d="M0 0 C-1.69179328 2.04219706 -2.63727666 2.91793306 -5.26171875 3.51171875 C-6.06222656 3.56972656 -6.86273438 3.62773438 -7.6875 3.6875 C-8.49574219 3.75324219 -9.30398438 3.81898438 -10.13671875 3.88671875 C-11.05904297 3.94279297 -11.05904297 3.94279297 -12 4 C-11 2 -11 2 -9.00390625 1.11328125 C-7.79541016 0.71689453 -7.79541016 0.71689453 -6.5625 0.3125 C-5.75941406 0.04050781 -4.95632813 -0.23148438 -4.12890625 -0.51171875 C-2 -1 -2 -1 0 0 Z " fill="#060605" transform="translate(381,606)"/>
<path d="M0 0 C0 3.19633438 -0.33810135 4.34096216 -2 7 C-4.125 8.75 -4.125 8.75 -6 10 C-6.66 9.67 -7.32 9.34 -8 9 C-7.04663979 7.68388323 -6.08714226 6.37221039 -5.125 5.0625 C-4.59132813 4.33160156 -4.05765625 3.60070312 -3.5078125 2.84765625 C-2 1 -2 1 0 0 Z " fill="#030303" transform="translate(791,681)"/>
<path d="M0 0 C-0.33 0.99 -0.66 1.98 -1 3 C-3.31 3 -5.62 3 -8 3 C-5.53387212 -0.1151089 -3.89156016 -0.31553191 0 0 Z " fill="#040304" transform="translate(344,611)"/>
<path d="M0 0 C-0.33 0.99 -0.66 1.98 -1 3 C-4.0625 4.1875 -4.0625 4.1875 -7 5 C-6 2 -6 2 -4.0625 0.8125 C-2 0 -2 0 0 0 Z " fill="#030203" transform="translate(379,547)"/>
<path d="M0 0 C2 2 2 2 2 5 C0.68 5 -0.64 5 -2 5 C-2 3.68 -2 2.36 -2 1 C-1.34 0.67 -0.68 0.34 0 0 Z " fill="#171717" transform="translate(585,534)"/>
<path d="M0 0 C0.33 0 0.66 0 1 0 C0.67 2.31 0.34 4.62 0 7 C-0.99 7 -1.98 7 -3 7 C-1.125 1.125 -1.125 1.125 0 0 Z " fill="#060606" transform="translate(415,504)"/>
</svg>
